<svg width="960" height="599" xmlns="http://www.w3.org/2000/svg" xmlns:xlink="http://www.w3.org/1999/xlink" xml:space="preserve" overflow="hidden"><defs><clipPath id="clip0"><rect x="874" y="1099" width="960" height="599"/></clipPath></defs><g clip-path="url(#clip0)" transform="translate(-874 -1099)"><path d="M886.233 1315.7 1436.85 1099 1834 1283.3 1831.01 1446.79 1288.22 1698 874 1529.91 886.233 1315.7Z" fill="#FFFFFF" fill-rule="evenodd"/><path d="M1304.81 1194.65 1293.72 1206.44C1239.79 1268.49 1188.95 1388.75 1118.04 1427.42L1105.86 1432.91 1052.88 1412.14 1063.51 1398.52C1092.22 1364.87 1137.16 1330.39 1148.11 1312.61 1160.61 1292.29 1149.84 1276.76 1127.38 1290.92 1106.32 1304.19 1089.41 1382.92 1026.51 1395.89L1015.11 1397.33 984.484 1385.33 982.681 1384.62C982.681 1415.8 982.681 1446.98 982.681 1478.15L1271.66 1592.46 1777.81 1380.5C1777.7 1387.59 1777.84 1428.25 1777.73 1433.52 1686.99 1469.68 1417.17 1590.3 1274.18 1650 1153.39 1600.55 1004.11 1542.48 941.929 1511.39 938.811 1496.84 921.259 1474.39 924.367 1419.13 927.476 1363.88 940.059 1336.83 970.207 1311.88L987.337 1305.88 987.337 1305.88 1078.53 1273.93 1079.72 1276.16C1083.59 1290.62 1039.58 1318.73 1034.89 1330.91 1029.87 1343.9 1028.06 1370.11 1048.22 1351.39 1064.01 1336.73 1110.29 1274.48 1138.41 1253.47L1207.63 1228.69 1217.06 1225.39 1221.37 1227.09C1237.44 1240.21 1166.14 1317.68 1130.65 1348.48 1077.69 1394.43 1102.71 1427.36 1157.32 1371.87 1180.55 1348.27 1245.99 1237.17 1270.66 1207.54L1295.38 1197.95 1304.81 1194.65ZM1466.62 1175.02 1517.73 1193.89 1506.72 1195.84C1477.4 1199.77 1456.5 1194.04 1447.89 1193.9 1434.81 1193.7 1406.48 1207.86 1465.3 1216.29 1480 1218.39 1510.64 1205.21 1538.26 1204.61L1548.15 1205.12 1591.99 1221.31 1593.97 1228.5C1594.9 1249.26 1564.54 1275.66 1504.91 1274.67 1260.19 1270.59 1474.22 1290.45 1512.38 1289.93 1548.15 1289.44 1675.63 1276.65 1725.06 1272.28L1729.1 1271.93 1781 1291.1 1729.81 1312.75 1718.23 1313.01C1643.41 1314.92 1453.97 1322.4 1399.28 1313.34 1340.94 1303.67 1347.12 1265.18 1381.58 1254.73 1423.86 1241.92 1482.65 1247.22 1509.1 1242.95 1535.56 1238.68 1553.41 1231.39 1540.3 1229.11 1527.2 1226.83 1488.13 1237.51 1430.48 1229.27 1410.41 1226.39 1403.88 1209.64 1423.86 1192.92 1430.42 1187.43 1443.8 1179.89 1456.64 1176.47L1466.62 1175.02ZM1415.1 1156 1426.63 1160.26 1418.22 1169.32C1364.7 1226.49 1202.75 1393.91 1174.53 1419.62 1144.43 1447.04 1174.87 1475.45 1205.32 1427.98 1233.25 1384.45 1247.12 1330.55 1320.73 1324.24 1421 1332.23 1472.69 1357.16 1612.44 1351.39L1638.29 1349.99 1528.33 1394.35 1510.72 1394.04C1456.7 1389.95 1371.71 1365.52 1328.48 1367.87 1279.09 1370.56 1246.38 1399.87 1235.39 1410.53 1189.07 1461.49 1242.89 1453.28 1262.54 1431.86 1319.99 1369.23 1423.06 1376.9 1334.3 1427.01 1328.65 1430.21 1277.4 1460.64 1264.6 1470.76 1251.8 1480.88 1253.69 1480.94 1257.52 1487.73L1273.08 1497.56 1234.02 1483.14 1236.12 1480.74C1246.58 1471.28 1278.33 1453.45 1282.9 1447.37 1288.14 1440.42 1290.86 1420.59 1264.48 1442.52 1256.1 1449.49 1239.51 1469.77 1221.72 1475.15L1216.08 1476.11 1140.44 1446.46 1150.85 1429.59C1208.77 1344.54 1369.65 1210.44 1367.43 1178.28L1364.74 1173.65 1415.1 1156Z" fill="#4850FF" fill-rule="evenodd"/><path d="M1332 1473 1466 1417.35C1382.16 1430.86 1437.18 1408.71 1429.58 1397.43 1421.56 1385.52 1401.18 1395.14 1384.91 1407.73 1368.65 1420.33 1369.57 1449.64 1332 1473Z" fill="#4850FF" fill-rule="evenodd"/></g></svg>