<svg width="1620" height="935" xmlns="http://www.w3.org/2000/svg" xmlns:xlink="http://www.w3.org/1999/xlink" xml:space="preserve" overflow="hidden"><defs><clipPath id="clip0"><rect x="1417" y="457" width="1620" height="935"/></clipPath></defs><g clip-path="url(#clip0)" transform="translate(-1417 -457)"><path d="M2136.84 530.144 2115.89 552.471C2013.95 669.912 1917.83 897.531 1783.79 970.717L1760.77 981.102 1660.63 941.8 1680.71 916.012C1734.99 852.331 1819.95 787.069 1840.63 753.417 1864.27 714.958 1843.92 685.56 1801.45 712.359 1761.63 737.482 1729.67 886.49 1610.78 911.034L1589.22 913.777 1531.33 891.055 1527.93 889.718C1527.93 948.725 1527.93 1007.73 1527.93 1066.74L2074.18 1283.1 3030.97 881.911C3030.76 895.332 3031.02 972.29 3030.81 982.271 2859.29 1050.71 2349.25 1279.01 2078.95 1392 1850.61 1298.41 1568.43 1188.49 1450.89 1129.66 1445 1102.12 1411.82 1059.61 1417.69 955.032 1423.57 850.452 1447.36 799.258 1504.35 752.035L1536.73 740.675 1536.73 740.675 1709.11 680.202 1711.36 684.438C1718.68 711.79 1635.49 765.007 1626.61 788.053 1617.14 812.634 1613.7 862.256 1651.81 826.817 1681.66 799.067 1769.14 681.24 1822.3 641.481L1953.15 594.588 1970.97 588.336 1979.13 591.549C2009.5 616.391 1874.73 763.021 1807.63 821.312 1707.53 908.281 1754.82 970.598 1858.05 865.582 1901.95 820.917 2025.67 610.63 2072.3 554.548L2119.02 536.397 2136.84 530.144ZM2442.72 493 2539.34 528.718 2518.52 532.413C2463.11 539.835 2423.59 528.997 2407.31 528.74 2382.59 528.35 2329.04 555.154 2440.23 571.107 2468.02 575.094 2525.93 550.142 2578.15 549.014L2596.84 549.976 2679.72 580.614 2683.45 594.216C2685.22 633.517 2627.81 683.485 2515.1 681.603 2052.5 673.878 2457.09 711.478 2529.22 710.488 2596.84 709.559 2837.82 685.359 2931.25 677.09L2938.9 676.431 3037 712.697 2940.24 753.677 2918.35 754.172C2776.91 757.796 2418.81 771.939 2315.43 754.794 2205.15 736.506 2216.82 663.642 2281.98 643.871 2361.9 619.622 2473.02 629.661 2523.03 621.578 2573.03 613.496 2606.78 599.693 2582.01 595.374 2557.24 591.056 2483.38 611.28 2374.4 595.669 2336.47 590.236 2324.13 558.529 2361.89 526.884 2374.3 516.489 2399.59 502.208 2423.87 495.75L2442.72 493ZM2345.34 457 2367.13 465.055 2351.22 482.206C2250.07 590.422 1943.92 907.301 1890.58 955.956 1833.69 1007.86 1891.22 1061.62 1948.79 971.783 2001.59 889.391 2027.81 787.381 2166.94 775.437 2356.48 790.562 2454.19 837.741 2718.36 826.821L2767.24 824.174 2559.38 908.132 2526.09 907.547C2423.96 899.809 2263.31 853.564 2181.6 858.013 2088.22 863.097 2026.39 918.568 2005.62 938.753 1918.06 1035.2 2019.81 1019.66 2056.95 979.123 2165.55 860.586 2360.38 875.101 2192.6 969.948 2181.91 975.991 2085.03 1033.6 2060.84 1052.75 2036.65 1071.91 2040.21 1072.01 2047.47 1084.88L2076.87 1103.47 2003.03 1076.19 2007.01 1071.63C2026.79 1053.74 2086.79 1019.99 2095.44 1008.48 2105.33 995.332 2110.49 957.791 2060.61 999.308 2044.77 1012.5 2013.4 1050.87 1979.79 1061.05L1969.12 1062.88 1826.14 1006.76 1845.81 974.827C1955.31 813.857 2259.42 560.031 2255.23 499.162L2250.14 490.398 2345.34 457Z" fill="#4850FF" fill-rule="evenodd"/></g></svg>